<svg xmlns="http://www.w3.org/2000/svg" xmlns:xlink="http://www.w3.org/1999/xlink" width="111" height="119" viewBox="0 0 111 119">
  <defs>
    <filter id="Ellipse_1" x="0" y="0" width="111" height="119" filterUnits="userSpaceOnUse">
      <feOffset dy="8" input="SourceAlpha"/>
      <feGaussianBlur result="blur"/>
      <feFlood flood-color="#58cc02" flood-opacity="0.4"/>
      <feComposite operator="in" in2="blur"/>
      <feComposite in="SourceGraphic"/>
    </filter>
  </defs>
  <g id="Group_12" data-name="Group 12" transform="translate(-195 -108)">
    <g transform="matrix(1, 0, 0, 1, 195, 108)" filter="url(#Ellipse_1)">
      <circle id="Ellipse_1-2" data-name="Ellipse 1" cx="55.5" cy="55.5" r="55.5" fill="#78c93c"/>
    </g>
    <path id="Icon_awesome-star" data-name="Icon awesome-star" d="M19.5,1.434,14.564,12.1,3.514,13.813a2.626,2.626,0,0,0-1.339,4.4l7.995,8.3L8.279,38.226a2.454,2.454,0,0,0,3.509,2.714l9.885-5.533,9.885,5.533a2.456,2.456,0,0,0,3.509-2.714L33.178,26.507l7.995-8.3a2.626,2.626,0,0,0-1.339-4.4L28.783,12.1,23.844,1.434a2.36,2.36,0,0,0-4.341,0Z" transform="translate(228.826 142.879)" fill="#fff"/>
  </g>
</svg>
